<svg width="85" height="102" viewBox="0 0 85 102" fill="none" xmlns="http://www.w3.org/2000/svg">
<path d="M67.6533 90.1167L67.6721 96.8068C67.6803 99.6779 70.0101 102 72.8794 102C72.8842 102 72.8895 102 72.8944 102C75.7706 101.991 78.0954 99.6533 78.0872 96.7774L78.0684 90.1167H67.6533Z" fill="#FACA10"/>
<path d="M54.9001 88.7847L54.8994 96.7919C54.8992 99.668 57.2305 102 60.1066 102C60.1069 102 60.1069 102 60.1071 102C62.9828 102 65.3145 99.6685 65.3145 96.7925L65.315 90.1166H58.6862C57.2548 90.117 55.9384 89.6173 54.9001 88.7847Z" fill="#FACA10"/>
<path d="M11.6473 17.9879C16.6145 17.9879 20.6413 13.9612 20.6413 8.99397C20.6413 4.02674 16.6145 0 11.6473 0C6.68006 0 2.65332 4.02674 2.65332 8.99397C2.65332 13.9612 6.68006 17.9879 11.6473 17.9879Z" fill="#FACA10"/>
<path d="M34.0624 36.6253L20.4355 35.0266L11.5239 26.1719L19.9768 30.6036L23.0933 30.9691V27.1197C23.0933 23.7642 20.3733 21.0439 17.0176 21.0439H6.18271C2.82724 21.0439 0.106956 23.7642 0.106956 27.1197L2.15809e-05 96.7774C-0.00817005 99.6533 2.3167 101.991 5.19285 102C5.19795 102 5.20282 102 5.20791 102C8.07697 102 10.4069 99.6779 10.4151 96.8068L10.5241 58.3068C10.5241 58.3019 10.5238 58.2971 10.5238 58.2922H12.7697L12.7726 96.7926C12.7728 99.6686 15.1045 102 17.9804 102C20.8564 102 23.1879 99.6679 23.1877 96.792C23.1841 50.4701 23.0931 48.447 23.0931 48.447L17.4292 47.7825C15.697 47.5793 13.5689 47.6205 12.3229 45.3191L5.40606 32.3289L15.3815 42.2408C16.0707 42.9256 16.9698 43.3593 17.9346 43.4724L33.0508 45.2458C35.4337 45.525 37.5874 43.8196 37.8664 41.4413C38.146 39.0607 36.4428 36.9045 34.0624 36.6253Z" fill="#FACA10"/>
<path d="M66.4393 17.9879C71.4065 17.9879 75.4333 13.9612 75.4333 8.99397C75.4333 4.02674 71.4065 0 66.4393 0C61.472 0 57.4453 4.02674 57.4453 8.99397C57.4453 13.9612 61.472 17.9879 66.4393 17.9879Z" fill="#FACA10"/>
<path d="M82.6449 66.6488H78.0961C78.0961 63.9001 78.0961 63.4228 78.0961 60.2194C78.0961 58.9967 77.1049 58.0055 75.8822 58.0055H75.193C75.4405 56.4643 77.0976 46.146 77.3618 44.5008C77.4771 43.7835 77.4102 43.0489 77.1678 42.3641L72.0294 27.855L72.3379 28.3132L77.9803 36.6999V27.1197C77.9803 23.7642 75.2601 21.0439 71.9046 21.0439H61.0697C57.7142 21.0439 54.994 23.7642 54.994 27.1197V28.6635L41.0841 36.6147C41.9805 38.1735 42.4025 40.0233 42.1769 41.9466C41.8896 44.397 40.6061 46.4867 38.7803 47.8636C38.9928 47.7832 39.2023 47.6873 39.4059 47.5711L54.9937 38.6606L54.9018 64.2156C56.729 62.752 58.5358 62.885 59.471 62.885V60.2194C59.471 57.8775 60.8421 55.7867 62.9033 54.8123L64.8813 42.4965L64.0884 33.462L63.848 30.7528L68.6166 44.2179C68.3868 45.6483 66.6593 56.4052 66.4025 58.0055H65.4489C64.2261 58.0055 63.235 58.9967 63.235 60.2194C63.235 63.3956 63.235 63.9187 63.235 66.6488H58.6864C57.4156 66.6488 56.3856 67.6789 56.3856 68.9495V84.052C56.3856 85.3228 57.4158 86.3527 58.6864 86.3527H82.6447C83.9155 86.3527 84.9454 85.3226 84.9454 84.052V68.9495C84.9457 67.6789 83.9155 66.6488 82.6449 66.6488ZM69.8784 63.7303C70.1115 63.7677 70.3431 63.7859 70.5718 63.7859C71.5473 63.7859 72.466 63.4529 73.2062 62.8848H73.668V66.6485H67.6629V62.8848H67.9186C68.473 63.3123 69.1387 63.6117 69.8784 63.7303Z" fill="#FACA10"/>
</svg>
